<mxfile host="app.diagrams.net" modified="2021-03-29T14:50:24.131Z" agent="5.0 (Windows NT 10.0; Win64; x64) AppleWebKit/537.36 (KHTML, like Gecko) Chrome/89.0.4389.90 Safari/537.36" etag="JqZZv_HXN1P1HgF1jZsE" version="14.4.8" type="github">
  <diagram id="gh4k9FvILk7xIF6z1R-N" name="Page-1">
    <mxGraphModel dx="1038" dy="547" grid="1" gridSize="10" guides="1" tooltips="1" connect="1" arrows="1" fold="1" page="1" pageScale="1" pageWidth="827" pageHeight="1169" math="0" shadow="0">
      <root>
        <mxCell id="0" />
        <mxCell id="1" parent="0" />
        <mxCell id="b_K_pGNKe-pxdueuxSEF-5" value="Azure" style="rounded=1;whiteSpace=wrap;html=1;verticalAlign=top;" vertex="1" parent="1">
          <mxGeometry x="40" y="30" width="680" height="260" as="geometry" />
        </mxCell>
        <mxCell id="b_K_pGNKe-pxdueuxSEF-1" value="Sandpit" style="rounded=1;whiteSpace=wrap;html=1;" vertex="1" parent="1">
          <mxGeometry x="80" y="200" width="120" height="60" as="geometry" />
        </mxCell>
        <mxCell id="b_K_pGNKe-pxdueuxSEF-2" value="Development/Test" style="rounded=1;whiteSpace=wrap;html=1;" vertex="1" parent="1">
          <mxGeometry x="240" y="200" width="120" height="60" as="geometry" />
        </mxCell>
        <mxCell id="b_K_pGNKe-pxdueuxSEF-3" value="Pre-Production" style="rounded=1;whiteSpace=wrap;html=1;" vertex="1" parent="1">
          <mxGeometry x="400" y="200" width="120" height="60" as="geometry" />
        </mxCell>
        <mxCell id="b_K_pGNKe-pxdueuxSEF-4" value="Production" style="rounded=1;whiteSpace=wrap;html=1;" vertex="1" parent="1">
          <mxGeometry x="560" y="200" width="120" height="60" as="geometry" />
        </mxCell>
        <mxCell id="b_K_pGNKe-pxdueuxSEF-8" style="edgeStyle=orthogonalEdgeStyle;rounded=0;orthogonalLoop=1;jettySize=auto;html=1;" edge="1" parent="1" source="b_K_pGNKe-pxdueuxSEF-6" target="b_K_pGNKe-pxdueuxSEF-1">
          <mxGeometry relative="1" as="geometry" />
        </mxCell>
        <mxCell id="b_K_pGNKe-pxdueuxSEF-9" style="edgeStyle=orthogonalEdgeStyle;rounded=0;orthogonalLoop=1;jettySize=auto;html=1;entryX=0;entryY=0.5;entryDx=0;entryDy=0;" edge="1" parent="1" source="b_K_pGNKe-pxdueuxSEF-6" target="b_K_pGNKe-pxdueuxSEF-7">
          <mxGeometry relative="1" as="geometry" />
        </mxCell>
        <mxCell id="b_K_pGNKe-pxdueuxSEF-6" value="CI Pipeline" style="rounded=1;whiteSpace=wrap;html=1;verticalAlign=top;" vertex="1" parent="1">
          <mxGeometry x="80" y="100" width="120" height="60" as="geometry" />
        </mxCell>
        <mxCell id="b_K_pGNKe-pxdueuxSEF-10" style="edgeStyle=orthogonalEdgeStyle;rounded=0;orthogonalLoop=1;jettySize=auto;html=1;entryX=0.5;entryY=0;entryDx=0;entryDy=0;" edge="1" parent="1" source="b_K_pGNKe-pxdueuxSEF-7" target="b_K_pGNKe-pxdueuxSEF-3">
          <mxGeometry relative="1" as="geometry" />
        </mxCell>
        <mxCell id="b_K_pGNKe-pxdueuxSEF-13" style="edgeStyle=orthogonalEdgeStyle;rounded=0;orthogonalLoop=1;jettySize=auto;html=1;entryX=0.5;entryY=0;entryDx=0;entryDy=0;" edge="1" parent="1" source="b_K_pGNKe-pxdueuxSEF-7" target="b_K_pGNKe-pxdueuxSEF-2">
          <mxGeometry relative="1" as="geometry" />
        </mxCell>
        <mxCell id="b_K_pGNKe-pxdueuxSEF-14" style="edgeStyle=orthogonalEdgeStyle;rounded=0;orthogonalLoop=1;jettySize=auto;html=1;entryX=0.5;entryY=0;entryDx=0;entryDy=0;" edge="1" parent="1" source="b_K_pGNKe-pxdueuxSEF-7" target="b_K_pGNKe-pxdueuxSEF-4">
          <mxGeometry relative="1" as="geometry" />
        </mxCell>
        <mxCell id="b_K_pGNKe-pxdueuxSEF-7" value="Release Pipeline" style="rounded=1;whiteSpace=wrap;html=1;verticalAlign=top;" vertex="1" parent="1">
          <mxGeometry x="240" y="100" width="440" height="60" as="geometry" />
        </mxCell>
        <mxCell id="b_K_pGNKe-pxdueuxSEF-15" value="" style="shape=image;verticalLabelPosition=bottom;labelBackgroundColor=#ffffff;verticalAlign=top;aspect=fixed;imageAspect=0;image=data:image/png,iVBORw0KGgoAAAANSUhEUgAAAgcAAAGDCAYAAAC/aLNoAAAgAElEQVR4Ae2dP64lx3XGtRSvwCvQCrgCr0Ar4KQOJlA6oSMBSglGk8mCEkEgDJiAEoqYQDAggGTgwATMgImDa5w3bEzdfv2/T9X5TtWvgYfX997u6qrv/Pu6qk7Vrx4cIAACIAACIAACIFAg8KvinFMQAAEQAAEQAAEQeEAOUAIQAAEQAAEQAIEnBCAHT3DwAQRAAARAAARAAHKADoAACIAACIAACDwhADl4goMPIAACIAACIAACkAN0AARAoCoC3/34c9XyKRwEQMAfAciBP6aUCAIg8AsCv/vLPx72xwECIJALAchBLnlRWxBIg8Db9x8e//yvf3r878//l6bOVBQEQOAjApADNAEEQMAVASMDn3/xzeOf3vzh8e6Pf3ctm8JAAATaIAA5aIMzTwGBIRCw+QX/8m//+UIMrNeA+QZDiJ1GdogA5KBDodIkEIhA4Nsffnr8+rd/fiEG9BpESIBngoAfApADPywpCQSGReDf//bfL/MLjBTYH70Gw6oCDe8EAchBJ4KkGSAQhYDNK5hIwfT/N7//a1R1eC4IgIADApADBxApAgRGRKCceDiRgun/f/zX/4wICW0GgW4QgBx0I0oaAgLtEDBiYL0DExko/9Nr0E4OPAkEaiEAOaiFLOWCQKcIzCcelsTAzuk16FTwNGsoBCAHQ4mbxoLAPQQs8NtkwzkhmD5bGiMHCIBAfgQgB/llSAtAoAkCtgzyFjEwgmBZCxwgAAL5EYAc5JchLQCBqghsTTycegzs/2fvvqpaDwoHARBohwDkoB3WPAkE0iGwNfGwJAZ2/uXX36drHxUGARBYRgBysIwL34LA8AjsTTwsyYGtjGhEggMEQKAPBCAHfciRVoCAKwJ7Ew9LYmDnbLDkCj+FgUA4ApCDcBFQARDQQuDIxMOSHNgkRXoNtGRIbUDgLgKQg7sIcj8IdIKABfi37z+spimWhKA8p9egEwWgGSBQIAA5KMDgFARGReDMxMOSGLDB0qgaQ7t7RwBy0LuEaR8I7CBgEw8tDbEM+kfPP//im53S+RkEQCAjApCDjFKjziDghMDZiYdz0mDEggMEQKA/BCAH/cmUFoHAIQTOTjycEwM2WDoEMxeBQEoEIAcpxUalQeAeAlcmHs7JARss3ZMBd4OAMgKQA2XpUDcQcEbAJh7aPIF5oD/7mV4DZ8FQHAiIIQA5EBMI1QGBWgh89+PPD9s18SwRWLq+Za8BayjU0gjKBYF1BCAH69jwCwh0g8CZpZCXyED5XcttmW2XRzIiulFDGpIIAchBImFRVRC4goAF2L2tlsvgv3fecltmG76w+pAVcUXy3AMC1xGAHFzHjjtBQB4BW71wL9if+d02WGp12HDCRGrYDroV6jwHBD4iADlAE0CgQwS8Jh7OiYOlP7Y6rIeifH7LHotWbeQ5IKCKAORAVTLUCwQuImDEYOqOL4Pr3fPW2zLP22C9CBwgAAJtEIActMGZp4BAEwQ8Jx7OyUTLDZYss2L+fPvcsg5NBMZDQEAUAciBqGCoFgicReDuUshLwXj6zt7aW6YUrs2VsHoYceAAARCoiwDkoC6+lA4CTRC4uxTyRALW/rd+Y99aj4EFmJqoFA8ZHAHIweAKQPNzI1Br4mFJElq/rdvQSPn8pXNSG3PrLbXXRwByoC8jaggCiwjUmng4D8atFyFaG1Io69UypXIRfL4Egc4RgBx0LmCa1ycCNScelkHYzlu/pVvgn9dh6fOXX3/fp3BpFQgIIAA5EBACVQCBMwjUnHg4D8Ktx/fnaxvM61N+JrXxjNZwLQicQwBycA4vrgaBUARqTzwsg6+dt9xgyYCdr20wr8/8s209zQECIOCPAOTAH1NKBAF3BGx+gQXCeXCs+bl1r4G10XoDzraJ1EZ3daNAEHhADlACEBBHoNXEw3lQbt1rcGZIoaxraxIjri5UDwRcEIAcuMBIISBQBwGbDGibDpXBsMV5y22ZJ+TODimUOLDvwoQi/0HABwHIgQ+OlAIC7gi0nHhYBlo7b50JsLZc8rxea59JbXRXPwocHAHIweAKQPM1EWg98bAMuq03WDIJWHvLOlw5b01oNDWHWoGADwKQAx8cKQUE3BBoPfFwHogtULc+tpZLntdv7XPrlRxbY8TzQKAlApCDlmjzLBDYQMAmHtpqhGvBr8X3Eb0GNq/Cq22tV3PcECc/gUBqBCAHqcVH5XtBwMbcPd6e7wbZ1hssmfyOLJd8pl2tV3TsRQdpBwiUCEAOSjQ4B4EABCyYHV0y+EyQPHutdctb70Xrw7vtEZkWrTHjeSBQGwHIQW2EKR8ENhCwFLwrC/+cDfxHro/oNbi6tsFee0ht3FA6fgKBAwhADg6AxCUgUAMB7+70vYC59XvUZL47axvstaeGzCgTBEZBAHIwiqRppwwCChMP54E1YiKf4VCz1ySiJ0RGyagICNxEAHJwE0BuB4EzCFhArPW2PA/4Zz5HTOKrNaQwtTuqN+SMPnAtCKgiADlQlQz16g4BlYmHU/Cc/kftTdCCJEW1rTvlpUHDIQA5GE7kNDgCgcilkCcSsPa/9QZLhn/tIYWyrRG9IhE6xjNBwBMByIEnmpQFAgsIRC6FXAbJpfOoN2uP5ZKX2rP0nW1cxQECIHAOAcjBOby4GgQOI6A48XAePCN6DQzA1gs+se/CYbXlQhB4QQBygCKAQAUEVCceluQg6o3auvnLerQ4t8mJHCAAAscRgBwcx4orQeAQAqoTD+dBOOptOmp9B1IbD6kvF4HACwKQAxQBBBwRUJ54WJKDiA2WJpi9l0su27V3bntYcIAACOwjADnYx4grQOAQAsoTD+dBM+otuvbaBvN2zj9HTcA8pEBcBAJCCEAOhIRBVXIiYPML3r7/0HwcfR74jn628Xerc8TRYm2DPRyiJmFG4M0zQeAqApCDq8hxHwj8kq+vEPD2AmL5e1SvgRGSmssll23cOrdhDQ4QAIFtBCAH2/jwKwisIpBl4mEZKCN7DaKHFEocoiZjrioTP4CAGAKQAzGBUJ0cCGSZeFgGRDuP6jUwqSr1sJDamMPOqGUcApCDOOx5clIEMk08LMmBBcSo2foqQwolHhE7USZVeao9IAKQgwGFTpOvI5Bp4mEZCO08Mhi2XC553u6tz1Fk6boGcicItEEActAGZ56SHAF787XguhVo1H+L3ICo9XLJR2Vh9eIAARB4jQDk4DUmfAMCTwjY26VqcDsaBCPz+yOWSz6Ki11nEyU5QAAEnhGAHDzjwScQeEIgY0bCUmCMzO23SZBLdVL5jtTGJ5XnAwi8IAA5QBFAYAUBe6NUyMu/G0Qjew0M2sjlko9iR2rjihHw9bAIQA6GFT0N30JA/W33aNCz6yK7zZXWNtjCLDKTY0sP+Q0EohCAHEQhz3MlEehh4mEZBKO2ZZ6Em2kSZ2Q2x4QX/0FABQHIgYokqEc4AkYMlBbqKYP81fPI7nLFtQ32cIzM6Ag3ACoAAgUCkIMCDE7HRaCXiYdl8LOxfgvQUUeWIYUSM1Ibo7SF56ohADlQkwj1aY5A1qWQy6C2dB65VLIJMWsvTOQcjebKzwNBYAUByMEKMHw9BgJZl0JeIgPldzbBLrLXIOOQwoSfYccBAqMjADkYXQMGbb8Fr0yT5abAdfR/dK+B6nLJWfAb1CxpthACkAMhYVCVNggYMcja5X0kuEX3GpgUs68oSWpjG1vkKboIQA50ZUPNKiDQ48TDOWGI7jUwjOd1yvg5evGoCupPkSBwGAHIwWGouDA7Ar1OPCwDr8Ibb08LSJHamN3qqf9VBCAHV5HjvlQI9DrxsCQGdq6wkE+G5ZLnuK19Zt+FVGZOZR0RgBw4gklRegjY/IK37z900c29FsDK76PfdDOubVDit3QeuZCUnkVRo1EQgByMIukB29n7xMN5IFMYI+8xA4TUxgGdB01+QA5Qgi4RGGHi4ZwcRG7LbEpkZMwC6bxePXyOnuTZpZHSKGkEIAfS4qFyVxAYYeLhPOAqLPvb45BCifN3P/58RR25BwRSIgA5SCk2Kr2GwCgTD8ugZecKS/72vHaEYawwbLOm93wPAt4IQA68EaW8MARGmnhYkoPobZlN4D0PKZRYRw/dhBkXDx4OAcjBcCLvr8EWmHqcCFcGpa1zhdn02ZdL3sK3/I3Uxv78By1aRgBysIwL3yZBwMaBsy/VWwafs+fR2zJPajKSDBTI2IQ7/0GgFgKQg1rIUm51BEbMSJiTB4VZ9CaHeb16/mwZGdZbxQECPSMAOehZuh23zSbg9Zo2dzSwqgSpnpZLPoq9wkqUHZs3TRNAAHIgIASqcA6BEYPRUtBS6DUwyfW0XPISzmvfkdp4zm65OhcCkINc8hq6tqNPPCyDlEqvQe9rG5SYz88V1pYY2iHQ+KoIQA6qwkvhXggYMeg9j34efLY+q/QajJwlYvJRWF/Cy8YoBwRKBCAHJRqcSyLAxMM/PE34s14DhS5tI2zM+/iTpM1QKRC4iwDk4C6C3F8VgRGXQt7qMbDfVFbqG3lIoZSRrfHAAQK9IQA56E2iHbVn1KWQy8CzdK6ySh/DPB97dFR6cjoyfZoigADkQEAIVOEZASYePg8jlARBpdeAIYVnGZHa+GzDfMqPAOQgvwy7agETD5+DTkkM7Fyl12CU5ZLn+G99trkxHCDQCwKQg14k2UE7mHi4TQyUUudGWi55ixCUvylsgNWBG6AJIghADkQEMXo1mHi4TQwsCKmkzY22XHJJAPbOVWQ0uj+h/fcRgBzcx5ASbiLAxMN9YqD0VsoKlevyssmJHCDQAwKQgx6kmLQNNr/g7fsPTzn8e29mo/6utBPgqMslH9U9lQWqkroFqi2CAORARBCjVYOJh+tvn/MgpLIts+koaxvsy43UxtG8WZ/thRz0KVfpVjHxcD/AlARB6U109OWSS7lsnauknEo7AionjQDkQFo8/VWOiYfniIG9hVovi8Jh9bD6bAVFfvskX1IbFbSWOlxFAHJwFTnuO40AEw8/BY6jQVSp14AhhXPys+EgDhDIigDkIKvkktWbiYfnAouRB7Wxa5ZLPi9DpYmkyVwG1Q1GAHIQLIDeH8/Ew/MBZepVUOo1YEjhmhyN4HGAQEYEIAcZpZakzratMCvpXQ8qCtsyT6rGcsnX5GhEz3rNOEAgGwKQg2wSS1JfMhKuBxMLKGqz3SF59+SpRPSSuBCqGYwA5CBYAD0+3iauMav9XjBR2WDJ9JPlku/JUpHs9eh3aJMvApADXzyHL83Gyacxc/5fCypqvQbI9Joc5/rPvgvDu8dUAEAOUolLt7I2YY0FcnyCiFKvgWkcyyX7yJXURl3/Rc1eIwA5eI0J31xAgDQ3nwCitC2zqQFrG/jIdepFILXxgnPhlhAEIAchsPf1UAKIXwBR63pmfQo/2RpBsLk41svGAQLqCEAO1CUkXj9zdLad8PRmxP/rwURpW2ZTO9Y2uC7LLTuw4TcOEFBHAHKgLiHx+jFZzS+AqHU50yPkJ9s5WSC1UdyxUb0H5AAluIyAOThSFn0CiNK2zJNCMI/ER7ZzYmCf1eaWTDLnPwhMCEAOJiT4fxoBshP8gofSUsmmCAwp+Ml2iRzYd2rzS047AG7oGgHIQdfirdc4S7dbc3p8fy6wKE5SY7nkczK8ovMmdw4QUEUAcqAqGfF6sZyuX/BQ6zUw1UO+fvLdIg5GwjhAQBEByIGiVMTrxFulX+Cwt0e1yWksl+wn3y1iYL8pyl/c/VC9RghADhoB3ctjGIv2DRyKO/aRgeIr4z2CQGpjL96xr3ZADvqSZ/XWEDh8A4e9pasdLJfsK+M9cmC/K+qBml5Sn7YIQA7a4p36aaQu+gYNtQ2WTDlZ28BXxkeIgV2jtgBWakdF5V0QgBy4wDhGIeS9+wYOtQ2WTItZLtlXxkfJgV1HauMYfjRLKyEHWSQVXE/eKH2DhmKvAfNJfGV8hhjYtaQ2Bjs5Hv+EAOTgCQ4+LCFgQYP9E3wDh2KvAQTQV8ZnyYFdr5jWuuQT+K5/BCAH/cv4dgtJXfQNGqpL5zJs5CvnK+SA1Mbb7ooCnBCAHDgB2WsxdDX7BwzFsWXk7C/nK+TA7lEccurVv9GudQQgB+vY8AsT1NyXiFadlU7vkA45MIJAaiPuNxoByEG0BISfbw7KujmvvgFx3+uAo7pcLsslv5ZVpP7aWhMcIBCJAOQgEn3xZxMwfAOG4rbMpoJGAiMDIc9e1rMvv/5e3ENQvZ4RgBz0LN0bbWPm+rLDvhPIVGeis+qlv6zv6Ml0L6mNNxwYt95GAHJwG8L+CiB10T9YmKM3XBUPlkv2l/cU4O/+V9x7Q1GHqZM/ApADf0zTl8ibpH+wUO01sPUW7gYw7vfXlxJTtV070zs4GnAIAcjBIZjGuYj9E/wdvXLuOssl+8u7DOwe56Q2juN/lVoKOVCShkBdCBb+wUJ1S14b5mBIwV/eHoRgXobi2hgC7ooqVEQAclAR3GxF08VcJ1Co5qwz6bSOvOeB3eMzqY3ZvGn++kIO8svQrQWkLvoHC+UuYZZL9pe3BxFYK4PURjdXR0EHEIAcHABphEt4i6wTKBQ3WDJ9ZrnkOvJeC+we3yvPXRnBR47WRsjBaBJfaC9jz3UChXKvAcsl15G5BwnYKkN1/sqCW+Gr5AhADpIL0KP6pC7WCRSqvQamMwwh1ZH5VmD3+o3URg+vRxl7CEAO9hDq/HdSF+sECQu+qgfLJdeRuVfw3ytHWbdUdZ56nUcAcnAes67usG7KPWfE7+eDiXLqGT1F5+WpZgPK+tWVgxy4MZCDgYVP6mKdIKGedsbaBnXk3pJAsO/CwI67UdMhB42AVnwM4851goTqtsymgxDCOjJvSQymZynrmaK/o07nEIAcnMOrm6uZrV4nSNhbueoGS6a8DCnUkfsUsFv+J7WxG3cs2RDIgaRY6laKHPd6AUJ1gyXTKFJW68m9JSkon0VqY11fOXLpkIMBpc/bY50gYW9yyr0GLHRVR+5lsI44V12ee0DX2lWTIQddiXO/MaQu1gsQyr0Gphksl1xP9hGkYHrmZ+++2jd8rgCBkwhADk4Clv1yAkSdAKE+/stQUh25TwE6+j/7LmT3zHr1hxzoyaRajehWrhcg1Md+mYBaT/bRxMCeT2pjNbc5bMGQg0FEb2+O1v2o4Mh6rIP6uC9pq32TA7Mp9WGtQVxtN82EHHQjyu2G8OZYLzgob7BkWsFyyfVkr0Z02Xdh2w/y63EEIAfHsUp7JePNdYOD8gZLprRkp9SVvxJBUCeqaZ3ogBWHHAwg9LfvPzCc8KZOgMjgjFkuuY7slUhBWRf1Ia4BXG4XTYQcdCHG9UbYW61NViqdB+d+wUK914AhBT9ZZ7Eb9b091r0VvyghADlQkkaFujARrV5wyLB1LkMK9eSvTBZIbazgTAcrEnLQscBJXawbGNQdsM01YUihrg6oEgRSGzt27I2aBjloBHTrx5C6WDcoqG+wZPoGOayrA6rEYKqX+tobrX0izzuHAOTgHF5prqY7uW5gyJBTzmqYdXVgCsLK/0ltTOOy5SoKOZATyf0KsX9C3aBgXbbWM6N8kL5aVweUCUFZtwzZNMp2NHLdIAcdSt+6E0sHwblvoMjQa8CiV74yz2xDNrzEAQJnEYAcnEVM/HpLrcvsyNTrnqHXwFSULBXIwWRLpDaKO23R6kEORAVztVoEhbpBIUOvAWsb1NWBKehm+q+eWXPV33FfPQQgB/WwbV6yOYBMDitbXa3XIMMELyajQg7mtpVFd5s7TR64igDkYBWaXD+Q014/IGRJDWNtg/q6MA++GT5n0d9cnrff2kIOOpEtb4v1A0KGNesZUqivBxmIwFodM+hwJy45fTMgB+lF+Hjp6rZuwzWHwPf3A0aWlDBI4n1Z92wvGZb87sAld9EEyEEHYiR1sX5AUN9gydSYoaX6etADcSC1sQOn36AJkIMGINd8BEvk1g8IWXoN0IX6utADObBeRg4Q2EMAcrCHkPjvpC7WDwhZ3rRYLrm+LvRADqwNGVJyxV1v99WDHCQWMavg1Q8Gn737KoWGsFxyfV3ohRhYO0htTGHWoZWEHITCf/3hBIM2wSDL4jEQxTb60BNByDJcdt1LcucdBCAHd9ALvJdZ6fWDQYZtmScVZHipvj70RAymtpDaOFkQ/+cIQA7miCT4zK6LbQJBlnFZ1jZoow9TQO3pf5ZhswRuubsqQg4SipS3xPrBwMZkbegmw0EvUn196IkQzNuSZegsgy32VEfIQTJpkq7WJhBk6TUw9WW55DY6MQ+qvXwmtTFZEGhUXchBI6A9HmNvstYN2ItTUm1Hpl4DhhQgBh52lIkMe/hSythHAHKwj5HMFcxIbxMIMjlKhhTa6IRHAFYvI8OOozLOeICKQA6SCJnUxTZBIFP+t+kEQwpt9EI9sHvUj9TGJMGgUTUhB42AvvuYt+8/MJzwpn4gyLStLfNP6uuDR9DNVEaGPUTu+lLuP4YA5OAYTqFXmcHaG20mJ5O1rpnyviEHkANvO7OeKA4QMAQgBwn0gNTFNkEgY7cqO3K20Q3vIKxcHqmNCYJCgypCDhqAfOcRvB22c/5Zu1Qhj+10RDmoe9WN1MY7HrufeyEHwrIkdbGd08/YazCpLnrSTk+8ArB6OZnm3kx2wH9fBCAHvni6lkaaWjunbz00mQ+yWdrpinpg96ofqY2ZPcL9ukMO7mNYpQT2T2jn7HtZX54FkdrpjFcAVi7Hhqs4xkUAciAqeyaatXP0PU3AYo5KO71RDuxedcveoybq3lNUC3IgKCabGOdl3JSzHSwybct8VFUhltsyxyaO40Nq41Gr6+86yIGgTJl9ftx53XX0mZZKPqOqNsHyLjbc304PlbHuqWftjA2Nfi3kQEwD2D+hnUPOtMHSFTVlk652uqQc3O/WLdOS4lfshHuWEYAcLOMS8i1r5bd15r32GkzKSwZDW326G4SV7ye1cbKqcf5DDoRkTepiO2fee6/BpNZkMLTTKeXg7lG3TEuLT/rP/+sIQA6uY+d6J6mLbZ14770GpXIywbWtbnkEYsUyekn5LW2D83UEIAfr2DT9hRnm7Rz4iGOo7OrZTr8UA7tXnUhtbBoWQh8GOQiF/+PDyU1v67gzL5V8R13JYGirZ14BWakcI9YcYyAAOQiWs00aI3WxrdMeeeyUDIa2uqYU2L3qMtKQXHB4CH085CAU/seD1MW2znrUXoNJzcmIaatvXgFZqZwRh+Um+xnpP+QgUNqkmrV31Fm3ZfZUUzIY2uudUnD3qMvoJNvTHlXLghwESobUxbZOmo1kPik7GQxtdc8jIKuVMfLw3CdL6vcMchAkW1IX2ztnZlo/KztDWu11UC3A36kP+y4821NvnyAHQRJlEmJbx0yO9rKik0LbVg/vBGPFe9l3YdmuevgWchAgRVIX2ztknNi6okNU2+ujYqC/UidSG9ftKvsvkIPGErRJiKSTtXXGPW7L7Km2ZDC01ccrQVj5HlIbPa1RpyzIQWNZMAmxvSPGee0ruc2BUQ5A1K293ZzB3PSHoy8EIAcN5UnqYnsHZ92ehjvHPgJkMLTXzzMBWPlaUhv37SvbFZCDhhJjffv2zpdeg3MKbnMzlIMQdWtvQ0cxZw2Rc7amfjXkoJGEeCtr79RYye2acpPB0F5XjwZg5etIbbxmb6p3QQ4aSYYZ4e0dLr0G15UbfW2vr8qB/2jdyAq6bnNqd0IOGkiE1MX2jpZeg3uKTVZNe509GoCVr2OOzz27U7obclBZGjjZGCfLBKn7is0qnjG6qxz8j9TNhqU48iMAOagsQ1IXYxwsk6N8FJu5MjH6eyQIK19DaqOP/UWWAjmoiD5vXjGOlV4DX6UmgyFGj5WD/17dbM4KR24EIAcV5ces7xinSq+Bv1KjyzG6vBeElX9nozN/O2xZIuSgEtp0x8Y4U95YKin04/EggyFGp5UJwFbdbHIiR14EIAeVZIcjjXGkvK1UUujH42WlSfYFidHrrSCs/JttC86REwHIQQW5mUEoG2yvdWNb5grKPCuSeTSQgzP+g5TimQEl+gg5cBYW+yfEOU8WYHFW5pXiGDKL0/EzgVnlWlIbVwxJ/GvIgbOASF2McZxsy+ysyDvFsbBXjJ6rBPyz9fj2h592NIqf1RCAHDhKhC7XOIfJUsmOinywKDIY4vT9bHCOvp4hv4NGJXQZ5MBRGJZfH22EIz6fJVsdlfhkUeg8BOGoz2Gy8EnjCr4ccuAkALpZ45wkvQZOSnyhGJYHj9P7o0FZ5TpSGy8YWOAtkAMH8HGQcQ6S2dAOCnyzCCbhxum/SuA/Wg+I/E1ja3g75MABbFIX45zj2/cfHCRIEXcRsAlnRwME18XZSzT2kPm7ltbufsjBTax5a4pzdOZomAV9U4Edb2doLc4WooP+meez94mj0VUsCnJwE1x7cz1jGFzr50BxMjeVt8Lt2IOffvfsKyD1FYzPuUjIwQ1ATcHt7bVnI1ZuGxss3VDeireSwQBB2PMbti4JhzYCkIMb8mH/hDgnSK/BDcVtcCt7MMTZxl5gVvmdFU0bGOKNR0AOLoLH+Gqs86PX4KLiNrrN5uLY26FKIKIesfa6hL/1unLoIgA5uCAbUhdjHQ3bMl9Q2oBbyGCItZOlgKz2HdlGAYZ58JGQg4NAlZexf0Ks02OltVIbtc/ZpCnWVtTIwFJ9bNl5Dj0EIAcnZcL+CbHOjjXaTyqswOWsAxJrM0sBWek75g8JGOlCFSAHC6BsfUWqVqyjs0DDkQ8BMhhi7UaJDCzVhd5APZuGHJyQCV2ksQ6ObZlPKKvgpWQwxNrPUlBW+Y7URj2DhRyckAmpi7HOjXXZTyir4KVkMMTajwoRWKsHqY1aRgs5OCgPUhdjHZulPVlw4ciNgM3ZWQsOfB9rY9H4Y+Natg05OCAP3njinRa9BgcUNcklDM/F21M0Eb2c6HMAAA8CSURBVFh7/udffJNEi/uvJuTggIxJXYx1ZvZGQbrTAUVNdAkZDLE2tRacFb7H1jUMGXKwIwdSF+OdGG8TO0qa9GeTq0Iwog7xNl7KgEXONAwacrAjBxxYvONgB7cdJU38M5N84+2rDMwq56Q2xhs15GBDBoyNxjsuFkjZUNAOfmI+T7yNqRCCsh7suxBv3JCDDRnwVhPvuIygcfSNABkM8XZWBmaVcxY8i7V7yMEK/kyYindY9BqsKGeHX9NLF29vKqRgqgcTkWMNHXKwgL91dZpiTkrK/xjHRa/BgnJ2/JUtgoOtxdiaKu5MRo4zeMjBAvakLsY7KGYsLyjmAF8xATje9tSIAhOSYwwfcjDDndRFDefEbOWZYg70kbk+GjaoQhLYiTXG+CEHM9zZPS7eMbEJy0wpB/tow3ps0hRvhyrkwOrBy0J7JwA5KDBn/wQNh8Qs5UIpBz2lB0/DFlUIAqmN7R0B5OAXzHlb0XBGbMvc3gmoPpEMBg2bVCEI7K/S1lIhB7/gTeqihiPCAbR1AOpPozdPwy4VCAKpjW2tFXLweLxsBUzqYrwTMhlYDw4HCJQIkMEQb5sK5MDqwNonpWXUPYccPB6Pt+8/kF/9Jt4B0WtQ19gzl04GQ7x9qhAEUhvbWPLw5MDGNek1iHc8dBm2MfisT2FOULyNqpADspnaWPHw5IA3Eg2nw0pobQw+81OMIEDkNew1mijYapocdREYmhww2UnH0dBVWNfQeymdDAYdm40kCEYSOeoiMCw5oJtSx8kwyaiukfdWOqRex3YjCYLNFeOoh8Cw5ID9E3QcDBss1TPwXksmg0HHfiMJgi2WxVEHgSHJAauv6TgWeg3qGPYIpbLUuY4dRxEE/Ec9Sx+SHPDWoeNU6DWoZ9y9l8zQoI4dR5EDe64NM3H4IzAcOWBCk45DYVtmf4MerUQyGHTsOYogkNpYx+qHIwekLuo4E9KR6hj1aKVapktUYOK5Gv4EX+Jv9UORA1MgjFnDmNlgyd+YRy6RHkENu47yryyi5m/9w5AD6360gBSlvDz32XmxLbO/MY9eIsugP9vYaD6HhdR8PcAw5IDURR3HYSzfyBoHCHgjQAaDjp1HkBMWU/OzqCHIAamLWg6DDZb8DJiSXiPw2buv6CEU2Egtghwwyfm1PVz9ZghyQOqiDjmg1+CqqXLfUQQYQtSx9wiCQGrjUUvZvq57csBSq1qOgl6DbYPkVx8EyGDQsvuWJIF9F3xsqHtyQOqijpNgRrGP0VLKMQTIYNCx/ZbkwJ7FS8gxG9m6qmtyYDPiWyslz1t3SMwm3jJFfquBAD5g3R579lW8iNy3pm7JASun6TkFZhLfN1hKOI8AGQx6vqAFMWHfhfO2Ut7RLTkgdVHLIWCopdlx3hoBMhi0/EELcmDP4IXkuqV1SQ5IXdRzBGywdN1IufM+AmQw6PmEFgTBSCHHNQS6JAdMQtRyBPQaXDNO7vJFwF4aWgQknqHlf9h34ZoddUcOSF3UMkxzlOQdXzNO7vJHgAwGPf9Qm0yR2njNjroiB9Z1yNiilvHTrXfNMLmrHgJkMGj5iNrkwMontfG8PXVFDjB6PaOnS++8UXJHfQRYNVXPV9QmCTasxHEcgW7IAamLesbOtszHDZEr2yPA3CQ9n1GTIDD36ZyNdUMO2K5Vz9DpyjtnjFzdFgGGIfV8Rk1yYGWTNXXcxrogByZwm3RSW7Eo/7gzMXmY8+UAAWUEyGA4btM9+D/rzeQ4hkAX5IDuQT0Dp9fgmAFyVTwCZDDo+Y+aRIR5UMdsLj05IHVRz7DpNThmfFylg4AFjJoBibJ1/BSpjcfsLjU5YMxQx+BK50evwTHj4yotBMhg0PQnpW/xOmcTuH3bS00OLAh5KQvl+DgGY+WkDO0bHldoIsAQpY8fyOBP8VPbNpiWHJhgLRBlUMKR6ggj3zY4ftVGgN7IcciBEUGOdQTSkgO6ADWNmF3Q1o2NX3IgwIuHpm+p8ZLF0u7rNpmSHDC7WNN4WWRk3dD4JRcC+BhNH+NNEEhtXLfLlOSAcUFNwzWHygECvSBAJpSmn/EmCKQ2LltsOnLA/gmaBkuvwbKB8W1uBBi+1PQ3ngSBSdTLNpqKHNhkIesG8lQMyvIxfsbulg2Mb/MjQE+lj49Q9rVMpH5tp6nIAamLmkbKtsyvDYtv+kGADAZNv+NNNphM/WyzacgBM4h1DZQxu2ej4lN/CBhBIHVa1wd5EAVSG5/tNg05YOxP0zDZlvnZoPjULwJkMGj6IA9iMJXB8Ogn+01BDpg1rGuULJX8yZg46x8BfJGuL5oC/J3/1jvE8REBeXJg3XlMCNI0SDMkkw8HCIyEAL2Ymv7oDiko7+WF56M1y5MDUhd1DREjGikk0tYSAUvdLQMK57p+6qxsSG1MQA6YBKRrcPQalKGC8xERsCyds4GH63V9Wikb1m15PKR7Dkhd1DUkeg1GDIe0uUSAlxdd/1QG+qvno6c2ypIDUhd1DY9utzJEcD4yAhZArgYf7tP1cSab0fddkCUHTELUNRxWExs5HNL2OQKkOOr6qrsEbOQ1XCTJAelC2sY2enfbPDjwGQTevv9AD8Ibbb91hShYL+mohxw5sHE8JvroGhkTdUZ1FbR7DwEyGHT91hViMN0z6vwqOXLAJERtA2Nb5r0Qwe8jI8CLjbb/mgL+2f82B260Q4ocMPtX27BYe3w090B7zyJgPoydY7X92FliYNeP2GMqRQ4Yt9M2KtYdPxsquH5EBMhg0PZjV8iB3TNar6kMOWDGr7ZBsS3ziGGONl9FAH+m7c+uEITRUhtlyAGpi9rGNHJKz9UAwX1jI8DS79o+7QpBGMkPSpADUhe1jYhtmccOcrT+OgJs0qTt284ShJGWjQ8nB6Qu6hvPqKk810MCd4LAJwTIYND3cWdIwiiLwIWTA1IXtQ1nJKb8yZ1zBgJ+CJDBoO3jzhCD6doRUhtDyQH7J+gbDb0GfkGCksZFwHzdFFj4r+/39mQ0Qlp3KDlgPE7bSOg1GDeY0XJ/BMhg0PZ3e4Rg/nvvqd1h5ABD0TcUeg38AwQljo0AGQz6fm9OAtY+977vQhg5MNZlix7xp4vBCONqY4cqWh+BAD2m/RAEI3u9HmHkoFdAaRcIgAAILCFgExOtx5Teg37IgfUe9PoSBTlYsmK+AwEQAIGLCBgJsCWUbcEc6xm1yWsWRNa6p/k+N1noNbURcnDRAXAbCIDA2AhMJMCGSG1+jpEAW9MAIpA72F8ha0YGezsgB71JlPaAAAi4I1AOCVhvACRgPAKwRRp63HsGcuDuRigQBEAgKwJTb4DNC4AEQAC2CMH8t95SGyEHWb0Y9QYBELiMwEQC5kMCc4fPZwjCUR3oLbURcnDZvXAjCIBABgSMCBgJoDeAQH800F+9rqe1YSAHGbwbdQQBENhFgHkBBP+rQd3rvp5SGyEHuy6HC0AABJQQYEgAEuAVzGuU85vf/1XJXC7XBXJwGTpuBAEQqI2ALTAzDQmY0yVLAGJQI6B7l9lDaiPkoLZ3o3wQAIFdBBgSIOh7B+jI8n792z/v6rz6BZADdQlRPxDoCIGlIQFzpJGOnGdDTGrogK2QmfmAHGSWHnUHAWEEGBIg6NYIulnKzJ7aCDkQdq5UDQQyIMCQACQgS8BuXU9bSCvrATnIKjnqDQKNEWBIABLQOrj28LysuzZCDho7WB4HAuoILJEAsgQgBj0E6og2ZE1thByoe2rqBwIVEWBIgKAfETBHe2bGfRcgBxUdL0WDgAoCU2+AzaC2cVDbXpithSEGowXpqPZmTG2EHKh4b+oBAg4ITCRgvqEQRAAiEBUYee5H3cuW2gg5cHDIFAECEQgwJEDAJ/Dm0QEj6GazWQ7IQRZJUc9hEZh6AxgSyBMICNrIakkHPv/imzR+DHKQRlRUtHcEJhLAkACBZSmw8F0fepEltRFy0HvEoX2SCDAk0IejJ2Ajx7M6YJOBMxyQgwxSoo5pEZh6A373l3+8ZAmwXgDB5Gww4fr+dCZDaiPkIG3YoeJKCEwkYD4kgGPvz7EjU2R6Vwcy7LsAOVCKMNQlBQJGBIwEWG+ATTCiN4BgcTdYcP94OmT+Q/mAHChLh7qFIsC8gPEcNkEambfSAes9UJ6cCDkIDT88XAEBhgQICK0CAs9B10odUE5thBwoRCfq0AwBY+rTkIBtiMKQAM66dNacow+tdeDbH35q5v/OPAhycAYtrk2DAEMCOPnWTp7noXNXdMBeUBQPyIGiVKjTYQSWhgRsk5MrRso9OHd0AB2I0AHF1EbIweEwxIXRCDAkgOOOcNw8E72rrQOKqY2Qg+iIx/NfIcCQAM64tjOmfHRMTQfe/fHvr3xh5BeQg0j0B382QwI4aDUHTX3QySgdUEtthBwMHqBbNH+JBJAlgBOOcsI8F91T1QHLoFI5IAcqkuikHgwJ4HhVHS/1Qjcz6IBKaiPkoJOg3LoZU2/Al19//7KhkO00Zt1iGYyPOhIk0AF0QFUHLNtK4YAcKEhBuA4TCZhvKAQRwLmqOlfqhW5m1wF76Yo+IAfREhB+vnVvGSkwReUPDNABdAAdaKMDCuseQA6EgzNVAwEQAAEQAIEIBCAHEajzTBAAARAAARAQRgByICwcqgYCIAACIAACEQhADiJQ55kgAAIgAAIgIIwA5EBYOFQNBEAABEAABCIQgBxEoM4zQQAEQAAEQEAYAciBsHCoGgiAAAiAAAhEIAA5iECdZ4IACIAACICAMAKQA2HhUDUQAAEQAAEQiEAAchCBOs8EARAAARAAAWEEIAfCwqFqIAACIAACIBCBAOQgAnWeCQIgAAIgAALCCEAOhIVD1UAABEAABEAgAgHIQQTqPBMEQAAEQAAEhBGAHAgLh6qBAAiAAAiAQAQCkIMI1HkmCIAACIAACAgjADkQFg5VAwEQAAEQAIEIBCAHEajzTBAAARAAARAQRgByICwcqgYCIAACIAACEQhADiJQ55kgAAIgAAIgIIwA5EBYOFQNBEAABEAABCIQgBxEoM4zQQAEQAAEQEAYAciBsHCoGgiAAAiAAAhEIAA5iECdZ4IACIAACICAMAKQA2HhUDUQAAEQAAEQiEAAchCBOs8EARAAARAAAWEE/h/GRNMgKvSJ2QAAAABJRU5ErkJggg==;" vertex="1" parent="1">
          <mxGeometry x="364.3" y="60" width="31.4" height="23.41" as="geometry" />
        </mxCell>
        <mxCell id="b_K_pGNKe-pxdueuxSEF-16" value="" style="shape=image;html=1;verticalAlign=top;verticalLabelPosition=bottom;labelBackgroundColor=#ffffff;imageAspect=0;aspect=fixed;image=https://cdn4.iconfinder.com/data/icons/logos-brands-5/24/jenkins-128.png" vertex="1" parent="1">
          <mxGeometry x="125" y="125" width="30" height="30" as="geometry" />
        </mxCell>
        <mxCell id="b_K_pGNKe-pxdueuxSEF-17" value="" style="aspect=fixed;html=1;points=[];align=center;image;fontSize=12;image=img/lib/azure2/devops/Azure_DevOps.svg;" vertex="1" parent="1">
          <mxGeometry x="446.5" y="126.5" width="27" height="27" as="geometry" />
        </mxCell>
      </root>
    </mxGraphModel>
  </diagram>
</mxfile>
